<?xml version="1.0" encoding="utf-8"?>
<!-- Generator: Adobe Illustrator 19.2.1, SVG Export Plug-In . SVG Version: 6.00 Build 0)  -->
<svg version="1.1" id="Layer_3" xmlns="http://www.w3.org/2000/svg" xmlns:xlink="http://www.w3.org/1999/xlink" x="0px" y="0px"
	 viewBox="0 0 60.1 59.7" style="enable-background:new 0 0 60.1 59.7;" xml:space="preserve">
<style type="text/css">
	.st0{fill:#FFD31A;}
	.st1{opacity:0.1;}
</style>
<path class="st0" d="M30.8,14.6L28.5,14l1.2-2.1l-5.1-5.1L22.5,8l-0.6-2.3h-7.3L14,8l-2.1-1.2l-5.1,5.1L8,14l-2.3,0.6v7.3L8,22.5
	l-1.2,2.1l5.1,5.1l2.1-1.2l0.6,2.3h7.3l0.6-2.3l2.1,1.2l5.1-5.1l-1.2-2.1l2.3-0.6V14.6z M18.3,24c-3.2,0-5.8-2.6-5.8-5.8
	s2.6-5.8,5.8-5.8s5.8,2.6,5.8,5.8C24,21.4,21.5,24,18.3,24z"/>
<g class="st1">
	<path d="M18.3,25c3.7,0,6.7-3,6.7-6.7s-3-6.7-6.7-6.7s-6.7,3-6.7,6.7C11.5,22,14.6,25,18.3,25z M18.3,13.4c2.7,0,4.8,2.2,4.8,4.8
		S20.9,23,18.3,23c-2.7,0-4.8-2.2-4.8-4.8S15.6,13.4,18.3,13.4z"/>
	<path d="M37.5,15l-1.1,1.1c-0.5-4.4-2.6-8.5-5.9-11.5c-3.9-3.5-9-5.1-14.3-4.5C7.6,1.1,0.8,8,0.1,16.7C-0.3,22,1.5,27.2,5.2,31
		c0.5,0.5,0.9,1.1,1.3,1.7c-1.5,0.1-2.6,1.4-2.6,2.9c0,0.7,0.3,1.4,0.8,1.9c-0.5,0.5-0.8,1.2-0.8,1.9c0,1.6,1.3,2.9,2.9,2.9h1
		c0.4,3.8,3.4,6.9,7.1,7.6l9.8,9.8H39l21.1-22.1L37.5,15z M37.5,17.7l19.8,19.8L38.4,57.3l-6.7-6.7L25,57.3L17.7,50h2.5
		c4.4,0,8.1-3.4,8.6-7.7h1c1.6,0,2.9-1.3,2.9-2.9c0-0.7-0.3-1.4-0.8-1.9c0.5-0.5,0.8-1.2,0.8-1.9c0-1.5-1.2-2.7-2.6-2.9
		c0.3-0.6,0.8-1.1,1.2-1.6c3.3-3.3,5.1-7.7,5.2-12.3L37.5,17.7z M36.1,57.7h-8.8l4.4-4.4L36.1,57.7z M2,16.9C2.6,9.3,8.8,2.9,16.4,2
		c4.7-0.5,9.3,0.9,12.8,4.1c3.5,3.1,5.4,7.5,5.4,12.2c0,4.3-1.7,8.4-4.7,11.5c-0.8,0.9-1.5,1.9-2,3H8.6c-0.5-1.1-1.2-2.1-2.1-3
		C3.3,26.3,1.6,21.6,2,16.9L2,16.9z M6.7,34.6h23.1c0.5,0,1,0.4,1,1s-0.4,1-1,1H6.7c-0.5,0-1-0.4-1-1S6.2,34.6,6.7,34.6L6.7,34.6z
		 M5.8,39.4c0-0.5,0.4-1,1-1h23.1c0.5,0,1,0.4,1,1c0,0.5-0.4,1-1,1H6.8C6.2,40.4,5.8,39.9,5.8,39.4L5.8,39.4z M9.7,42.3h17.2
		c-0.5,3.3-3.3,5.8-6.7,5.8h-3.8C13,48.1,10.2,45.5,9.7,42.3z"/>
	<path d="M47.1,45.6l8.1-8.1L41.3,23.6l-8.1,8.1L47.1,45.6z M52.5,37.5l-5.4,5.4L36,31.8l5.4-5.4L52.5,37.5z"/>
	<path d="M36.8,40.1l1.4-1.4l7.7,7.7l-1.4,1.4L36.8,40.1z"/>
	<path d="M33.9,43l1.4-1.3l7.5,7.7l-1.4,1.3L33.9,43z"/>
	<path d="M31,45.9l1.4-1.4l7.7,7.7l-1.4,1.4L31,45.9z"/>
	<path d="M45.3,35.1l1.4-1.4l1.4,1.4l-1.4,1.4L45.3,35.1z"/>
	<path d="M48,37.8l1.4-1.4l1.3,1.3l-1.4,1.4L48,37.8z"/>
	<path d="M42.6,32.4L44,31l1.4,1.4L44,33.8L42.6,32.4z"/>
</g>
</svg>
