<?xml version="1.0" encoding="utf-8"?>
<!-- Generator: Adobe Illustrator 19.2.1, SVG Export Plug-In . SVG Version: 6.00 Build 0)  -->
<svg version="1.1" id="Layer_3" xmlns="http://www.w3.org/2000/svg" xmlns:xlink="http://www.w3.org/1999/xlink" x="0px" y="0px"
	 viewBox="0 0 59.9 49" style="enable-background:new 0 0 59.9 49;" xml:space="preserve">
<style type="text/css">
	.st0{fill:#E9EAF4;}
	.st1{fill:#D9E1FF;}
	.st2{fill:#92A4FF;}
</style>
<g>
	<path class="st0" d="M44.7,42.9h-1.4l-2.8-5.6l-1.8,0.9l2.3,4.7H21.8l2.3-4.7l-1.8-0.9l-2.8,5.6h-1.4c-2.8,0-5.1,2.3-5.1,5.1v1
		h36.8v-1C49.8,45.2,47.5,42.9,44.7,42.9z M15.2,47c0.4-1.2,1.6-2,2.9-2h26.6c1.3,0,2.5,0.9,2.9,2H15.2z"/>
	<path class="st1" d="M41.3,16.4L39.6,16l0.9-1.5l-4.2-4.2l-1.5,0.9l-0.4-1.7h-5.9l-0.4,1.7l-1.5-0.9l-4.2,4.2l0.9,1.5l-1.7,0.4v5.9
		l1.7,0.4l-0.9,1.5l4.2,4.2l1.5-0.9l0.4,1.7h5.9l0.4-1.7l1.5,0.9l4.2-4.2l-0.9-1.5l1.7-0.4V16.4z M31.4,23c-2,0-3.6-1.6-3.6-3.6
		s1.6-3.6,3.6-3.6s3.6,1.6,3.6,3.6S33.4,23,31.4,23z"/>
	<g>
		<path class="st0" d="M16.1,15.8h2v2h-2V15.8z"/>
		<path class="st0" d="M12,15.8h2v2h-2V15.8z"/>
		<path class="st0" d="M12,11.7h2v2h-2V11.7z"/>
		<path class="st0" d="M12,7.7h2v2h-2V7.7z"/>
		<path class="st0" d="M48.8,15.8h2v2h-2V15.8z"/>
		<path class="st0" d="M48.8,11.7h2v2h-2V11.7z"/>
		<path class="st0" d="M48.8,7.7h2v2h-2V7.7z"/>
		<path class="st0" d="M44.7,15.8h2v2h-2V15.8z"/>
	</g>
	<path class="st0" d="M52.4,0H10.5C6.3,0,2.9,3.4,2.9,7.6v14.9C4.4,21.3,6.1,20.4,8,20V7.6c0-1.4,1.1-2.5,2.5-2.5h41.9
		c1.4,0,2.5,1.1,2.5,2.5v23.5c0,1.4-1.1,2.5-2.5,2.5h-30c-0.3,1.8-1,3.6-2.1,5.1h32c4.2,0,7.6-3.4,7.6-7.6V7.6C60,3.4,56.6,0,52.4,0
		z"/>
	<g>
		<path class="st2" d="M5.8,41.2v-3.5c0-2.6,2.1-4.6,4.6-4.6c2.6,0,4.6,2.1,4.6,4.6v3.5c-1.4,0.7-3,1.1-4.6,1.1
			C8.8,42.3,7.2,41.9,5.8,41.2z"/>
		<circle class="st2" cx="10.5" cy="28.4" r="2.3"/>
		<path class="st2" d="M0,31.8C0,26,4.7,21.4,10.4,21.4c5.8,0,10.4,4.7,10.4,10.4c0,3.1-1.4,5.8-3.5,7.8v-2c0-2.6-1.5-4.9-3.6-6.1
			c0.8-0.8,1.3-2,1.3-3.2c0-2.6-2.1-4.6-4.6-4.6c-2.6,0-4.6,2.1-4.6,4.6c0,1.2,0.5,2.4,1.3,3.2C5,32.7,3.5,35,3.5,37.6v2
			C1.4,37.7,0,34.9,0,31.8z"/>
	</g>
</g>
</svg>
