<?xml version="1.0" encoding="utf-8"?>
<!-- Generator: Adobe Illustrator 19.2.1, SVG Export Plug-In . SVG Version: 6.00 Build 0)  -->
<svg version="1.1" id="Layer_3" xmlns="http://www.w3.org/2000/svg" xmlns:xlink="http://www.w3.org/1999/xlink" x="0px" y="0px"
	 viewBox="0 0 60 43.8" style="enable-background:new 0 0 60 43.8;" xml:space="preserve">
<style type="text/css">
	.st0{fill:#E9EAF4;}
	.st1{fill:#92A4FF;}
	.st2{fill:#D9E1FF;}
</style>
<g>
	<path class="st0" d="M50.1,3.3H10c-4,0-7.3,3.3-7.3,7.3v14.2c1.4-1.1,3.1-2,4.9-2.4V10.5c0-1.3,1.1-2.4,2.4-2.4h40.1
		c1.3,0,2.4,1.1,2.4,2.4V33c0,1.3-1.1,2.4-2.4,2.4H21.4c-0.3,1.8-1,3.4-2,4.9h30.7c4,0,7.3-3.3,7.3-7.3V10.5
		C57.4,6.6,54.1,3.3,50.1,3.3z"/>
	<g>
		<path class="st1" d="M5.6,42.7v-3.4c0-2.4,2-4.4,4.4-4.4s4.4,2,4.4,4.4v3.4c-1.3,0.7-2.8,1.1-4.4,1.1C8.4,43.8,6.9,43.4,5.6,42.7z
			"/>
		<circle class="st1" cx="10" cy="30.5" r="2.2"/>
		<path class="st1" d="M0,33.8c0-5.5,4.5-10,10-10s10,4.5,10,10c0,2.9-1.3,5.6-3.3,7.4v-1.9c0-2.5-1.4-4.7-3.4-5.8
			c0.8-0.8,1.2-1.9,1.2-3c0-2.4-2-4.4-4.4-4.4s-4.4,2-4.4,4.4c0,1.2,0.5,2.3,1.2,3c-2.1,1.1-3.4,3.3-3.4,5.8v1.9
			C1.3,39.4,0,36.7,0,33.8z"/>
	</g>
</g>
<path class="st2" d="M40.4,24.8v-0.3c-0.7,0.4-1.6,0.6-2.4,0.6c-1.1,0-2.1-0.4-3-1l-1.7-1.3c2-1,3.5-2.6,4.4-4.7l0.2-0.4
	c0.5-1.1,1.6-1.8,2.8-1.8H41h0.1c0.2-0.6,0.4-1.6-0.2-2.2c-0.8-0.8-1.9-0.3-3.1,0.1c-0.5,0.2-1.3,0.5-1.5,0.4s-0.6-0.9-0.8-1.3
	c-0.5-1.1-1.1-2.3-2.2-2.3s-1.7,1.2-2.2,2.3c-0.2,0.5-0.6,1.2-0.8,1.3c-0.2,0.1-1.1-0.2-1.6-0.4c-1.1-0.4-2.3-0.9-3.1-0.1
	s-0.3,1.9,0.1,3.1c0.2,0.5,0.5,1.3,0.4,1.5s-0.9,0.6-1.3,0.8c-1.1,0.5-2.3,1.1-2.3,2.2s1.2,1.7,2.3,2.2c0.5,0.2,1.2,0.6,1.3,0.8
	s-0.2,1.1-0.4,1.6c-0.4,1.1-0.9,2.3-0.1,3.1c0.8,0.8,1.9,0.3,3.1-0.1c0.5-0.2,1.3-0.5,1.5-0.4c0.2,0.1,0.6,0.9,0.8,1.3
	c0.5,1.1,1.1,2.3,2.2,2.3s1.7-1.2,2.2-2.3c0.2-0.5,0.6-1.2,0.8-1.3c0.2-0.1,1.1,0.2,1.6,0.4c1.1,0.4,2.3,0.8,3.1,0.1
	c0.8-0.8,0.3-1.9-0.1-3.1C40.6,25.5,40.5,25.1,40.4,24.8L40.4,24.8z"/>
<g>
	<path class="st0" d="M59.5,0c0.2,0.1,0.4,0.3,0.5,0.5L47,15.7L44.3,13L59.5,0z"/>
	<path class="st0" d="M42.9,15.8l0.6-1.5l2.2,2.2l-1.5,0.6C43.9,16.6,43.4,16.1,42.9,15.8L42.9,15.8z"/>
	<path class="st0" d="M43.2,19c0,0.4-0.1,0.8-0.3,1.1l-1.2,2.1c-0.8,1.3-2.2,2.1-3.7,2.1c-0.9,0-1.8-0.3-2.6-0.9l-0.8-0.6
		c1.6-1.1,2.9-2.6,3.7-4.4l0.2-0.4c0.4-0.8,1.2-1.4,2.1-1.4h0.3C42.2,16.8,43.2,17.8,43.2,19L43.2,19z"/>
</g>
<path class="st0" d="M45.7,29.7h2v2h-2V29.7z"/>
<path class="st0" d="M45.7,25.8h2v2h-2V25.8z"/>
<path class="st0" d="M45.7,21.9h2v2h-2V21.9z"/>
</svg>
