<?xml version="1.0" encoding="utf-8"?>
<!-- Generator: Adobe Illustrator 19.2.1, SVG Export Plug-In . SVG Version: 6.00 Build 0)  -->
<svg version="1.1" id="Layer_3" xmlns="http://www.w3.org/2000/svg" xmlns:xlink="http://www.w3.org/1999/xlink" x="0px" y="0px"
	 viewBox="0 0 59.9 57.6" style="enable-background:new 0 0 59.9 57.6;" xml:space="preserve">
<style type="text/css">
	.st0{fill:#92A4FF;}
	.st1{fill:#E9EAF4;}
</style>
<g>
	<g>
		<path class="st0" d="M26.3,36.9v-3.2c0-2.3,1.9-4.1,4.1-4.1c2.2,0,4.1,1.9,4.1,4.1v3.2c-1.3,0.6-2.7,1-4.1,1S27.5,37.5,26.3,36.9z
			"/>
		<circle class="st0" cx="30.4" cy="25.5" r="2.1"/>
		<path class="st0" d="M21.1,28.6c0-5.1,4.2-9.3,9.3-9.3c5.1,0,9.3,4.2,9.3,9.3c0,2.8-1.2,5.2-3.1,6.9v-1.8c0-2.3-1.3-4.4-3.2-5.4
			c0.7-0.7,1.1-1.7,1.1-2.8c0-2.3-1.9-4.1-4.1-4.1s-4.1,1.9-4.1,4.1c0,1.1,0.4,2.1,1.1,2.8c-1.9,1.1-3.2,3.1-3.2,5.4v1.8
			C22.3,33.8,21.1,31.3,21.1,28.6z"/>
	</g>
	<g>
		<circle class="st1" cx="14" cy="11" r="0.9"/>
		<path class="st1" d="M18.8,15.7c0.4-0.8,0.7-1.6,0.7-2.6c0-3-2.4-5.4-5.4-5.4s-5.4,2.4-5.4,5.4s2.4,5.4,5.4,5.4
			c1.1,0,2-0.3,2.9-0.8l3.6,3.4c0.6-0.7,1.2-1.4,1.9-2L18.8,15.7z M16.5,16.3L16,16.5c-0.7,0.3-1.4,0.5-2.1,0.5
			c-0.7,0-1.4-0.2-2.1-0.5l-0.5-0.2v-1.8c0-1,0.6-1.8,1.4-2.3c-0.3-0.3-0.5-0.7-0.5-1.2c0-0.9,0.8-1.7,1.7-1.7s1.7,0.8,1.7,1.7
			c0,0.5-0.2,0.9-0.5,1.2c0.8,0.4,1.4,1.3,1.4,2.3L16.5,16.3L16.5,16.3z"/>
		<path class="st1" d="M14,12.7c-1,0-1.7,0.8-1.7,1.7v1.3c0.5,0.3,1.1,0.4,1.7,0.4c0.6,0,1.2-0.2,1.7-0.4v-1.3
			C15.7,13.5,14.9,12.7,14,12.7z"/>
	</g>
	<g>
		<path class="st1" d="M44.3,5c-1,0-1.7,0.8-1.7,1.7V8c0.5,0.3,1.1,0.4,1.7,0.4S45.5,8.2,46,8V6.7C46,5.8,45.2,5,44.3,5z"/>
		<circle class="st1" cx="44.3" cy="3.3" r="0.9"/>
		<path class="st1" d="M44.2,0c-3,0-5.4,2.4-5.4,5.4c0,1.5,0.6,2.8,1.6,3.8l-4.8,8.1c0.8,0.4,1.6,0.8,2.3,1.4l4.8-8.2
			c0.5,0.1,1,0.2,1.5,0.2c3,0,5.4-2.4,5.4-5.4C49.6,2.4,47.2,0,44.2,0z M46.8,8.6l-0.5,0.2c-0.7,0.3-1.4,0.5-2.1,0.5
			s-1.4-0.2-2.1-0.5l-0.5-0.2V6.8c0-1,0.6-1.8,1.4-2.3c-0.3-0.3-0.5-0.7-0.5-1.2c0-0.9,0.8-1.7,1.7-1.7c0.9,0,1.7,0.8,1.7,1.7
			c0,0.5-0.2,0.9-0.5,1.2c0.8,0.4,1.4,1.3,1.4,2.3V8.6z"/>
	</g>
	<g>
		<path class="st1" d="M54.7,30.4c-1,0-1.7,0.8-1.7,1.7v1.3c0.5,0.3,1.1,0.4,1.7,0.4s1.2-0.2,1.7-0.4v-1.3
			C56.4,31.2,55.6,30.4,54.7,30.4z"/>
		<path class="st1" d="M54.6,25.5c-2.3,0-4.3,1.5-5.1,3.5l-6.7-0.7c0,0.1,0,0.1,0,0.1c0,0.9-0.1,1.7-0.3,2.6l6.7,0.7
			c0.4,2.6,2.6,4.6,5.3,4.6c3,0,5.4-2.4,5.4-5.4C60,28,57.6,25.5,54.6,25.5z M57.3,34l-0.5,0.2c-0.7,0.3-1.4,0.5-2.1,0.5
			s-1.4-0.2-2.1-0.5L52.1,34v-1.8c0-1,0.6-1.8,1.4-2.3c-0.3-0.3-0.5-0.7-0.5-1.2c0-0.9,0.8-1.7,1.7-1.7c0.9,0,1.7,0.8,1.7,1.7
			c0,0.5-0.2,0.9-0.5,1.2c0.8,0.4,1.4,1.3,1.4,2.3V34z"/>
		<circle class="st1" cx="54.7" cy="28.7" r="0.9"/>
	</g>
	<g>
		<circle class="st1" cx="35.8" cy="50" r="0.9"/>
		<path class="st1" d="M35.8,51.7c-1,0-1.7,0.8-1.7,1.7v1.3c0.5,0.3,1.1,0.4,1.7,0.4s1.2-0.2,1.7-0.4v-1.3
			C37.6,52.5,36.8,51.7,35.8,51.7z"/>
		<path class="st1" d="M36,46.8l-1.5-6.6c-0.9,0.3-1.7,0.5-2.7,0.6l1.5,6.6c-1.7,0.9-2.9,2.7-2.9,4.8c0,3,2.4,5.4,5.4,5.4
			s5.4-2.4,5.4-5.4C41.2,49.3,38.9,46.9,36,46.8z M38.4,55.3l-0.5,0.2c-0.7,0.3-1.4,0.5-2.1,0.5s-1.4-0.2-2.1-0.5l-0.5-0.2v-1.8
			c0-1,0.6-1.8,1.4-2.3c-0.3-0.3-0.5-0.7-0.5-1.2c0-0.9,0.8-1.7,1.7-1.7c0.9,0,1.7,0.8,1.7,1.7c0,0.5-0.2,0.9-0.5,1.2
			c0.8,0.4,1.4,1.3,1.4,2.3V55.3z"/>
	</g>
	<g>
		<path class="st1" d="M5.2,36.3c-1,0-1.7,0.8-1.7,1.7v1.3c0.5,0.3,1.1,0.4,1.7,0.4c0.6,0,1.2-0.2,1.7-0.4V38
			C7,37.1,6.2,36.3,5.2,36.3z"/>
		<circle class="st1" cx="5.2" cy="34.6" r="0.9"/>
		<path class="st1" d="M19.2,33.8c-0.4-0.8-0.7-1.7-0.9-2.6L9.9,34c-1-1.5-2.6-2.5-4.5-2.5c-3,0-5.4,2.4-5.4,5.4s2.4,5.4,5.4,5.4
			s5.4-2.4,5.4-5.4c0-0.1,0-0.2,0-0.4L19.2,33.8z M7.8,39.9l-0.5,0.2c-0.7,0.3-1.4,0.5-2.1,0.5c-0.7,0-1.4-0.2-2.1-0.5l-0.5-0.2
			v-1.8c0-1,0.6-1.8,1.4-2.3c-0.3-0.3-0.5-0.7-0.5-1.2c0-0.9,0.8-1.7,1.7-1.7s1.7,0.8,1.7,1.7c0,0.5-0.2,0.9-0.5,1.2
			c0.8,0.4,1.4,1.3,1.4,2.3L7.8,39.9L7.8,39.9z"/>
	</g>
</g>
</svg>
