<?xml version="1.0" encoding="utf-8"?>
<!-- Generator: Adobe Illustrator 19.2.1, SVG Export Plug-In . SVG Version: 6.00 Build 0)  -->
<svg version="1.1" id="Layer_3" xmlns="http://www.w3.org/2000/svg" xmlns:xlink="http://www.w3.org/1999/xlink" x="0px" y="0px"
	 viewBox="0 0 59.9 60" style="enable-background:new 0 0 59.9 60;" xml:space="preserve">
<style type="text/css">
	.st0{fill:#FFD31A;}
	.st1{opacity:0.1;enable-background:new    ;}
</style>
<g>
	<path class="st0" d="M3.8,54.3h1.9v1.9H3.8V54.3z"/>
	<path class="st0" d="M7.7,54.3h1.9v1.9H7.7V54.3z"/>
	<path class="st0" d="M11.5,54.3h1.9v1.9h-1.9V54.3z"/>
	<path class="st1" d="M58,50.4v-30c0-2.7-2.2-4.8-4.8-4.8h-9.7v1.9h9.7c1.6,0,2.9,1.3,2.9,2.9v30H3.8v-30c0-1.6,1.3-2.9,2.9-2.9h9.7
		v-1.9H6.7c-2.7,0-4.8,2.2-4.8,4.8v30H0v4.8C0,57.9,2.2,60,4.8,60h50.3c2.7,0,4.8-2.2,4.8-4.8v-4.8H58z M58,55.3
		c0,1.6-1.3,2.9-2.9,2.9H4.8c-1.6,0-2.9-1.3-2.9-2.9v-2.9H58V55.3z"/>
	<path class="st1" d="M52.2,48.5H7.7c-1.1,0-1.9-0.9-1.9-1.9V21.4c0-1.1,0.9-1.9,1.9-1.9h11.6v1.9H7.7v25.2h44.5V21.4H40.6v-1.9
		h11.6c1.1,0,1.9,0.9,1.9,1.9v25.2C54.1,47.6,53.2,48.5,52.2,48.5z"/>
	<path class="st1" d="M29.9,19.5c-2.7,0-4.8-2.2-4.8-4.8s2.2-4.8,4.8-4.8s4.8,2.2,4.8,4.8S32.6,19.5,29.9,19.5z M29.9,11.7
		c-1.6,0-2.9,1.3-2.9,2.9s1.3,2.9,2.9,2.9s2.9-1.3,2.9-2.9S31.5,11.7,29.9,11.7z"/>
	<path class="st1" d="M19.3,44.6c-4.3,0-7.7-3.5-7.7-7.7s3.5-7.7,7.7-7.7c4.3,0,7.7,3.5,7.7,7.7S23.5,44.6,19.3,44.6z"/>
	<path class="st1" d="M40.6,44.6c-4.3,0-7.7-3.5-7.7-7.7s3.5-7.7,7.7-7.7c4.3,0,7.7,3.5,7.7,7.7S44.8,44.6,40.6,44.6z"/>
	<path class="st0" d="M18.2,40.1l-3.5-3.5l1.4-1.4l2.3,2.3l9-7.2l1.2,1.5L18.2,40.1z"/>
	<path class="st0" d="M44.1,34.7l-1.4-1.4l-2.2,2.2l-2.2-2.2l-1.4,1.4l2.2,2.2l-2.2,2.2l1.4,1.4l2.2-2.2l2.2,2.2l1.4-1.4l-2.2-2.2
		L44.1,34.7z"/>
	<path class="st0" d="M44.4,18.3V11l-2.7-0.7c-0.1-0.3-0.3-0.6-0.4-1l1.4-2.4l-5.2-5.2l-2.4,1.4c-0.3-0.1-0.6-0.3-1-0.4L33.4,0h-7.2
		l-0.7,2.7c-0.3,0.1-0.6,0.3-1,0.4l-2.4-1.4l-5.2,5.2l1.4,2.4c-0.1,0.3-0.3,0.6-0.4,1L15.2,11v7.3l2.7,0.7c0.1,0.3,0.3,0.6,0.4,1
		l-1.4,2.4l5.2,5.2l2.4-1.4c0.3,0.1,0.6,0.3,1,0.4l0.7,2.7h7.3l0.7-2.7c0.3-0.1,0.6-0.3,1-0.4l2.4,1.4l5.2-5.2L41.4,20
		c0.1-0.3,0.3-0.6,0.4-1L44.4,18.3z M29.9,22.4c-4.3,0-7.7-3.5-7.7-7.7S25.7,7,29.9,7s7.7,3.5,7.7,7.7S34.2,22.4,29.9,22.4z"/>
	<path class="st1" d="M29.9,23.3c-4.8,0-8.7-3.9-8.7-8.7s3.9-8.7,8.7-8.7c4.8,0,8.7,3.9,8.7,8.7S34.7,23.3,29.9,23.3z M29.9,7.8
		c-3.7,0-6.8,3-6.8,6.8s3,6.8,6.8,6.8s6.8-3,6.8-6.8S33.6,7.8,29.9,7.8z"/>
</g>
</svg>
