<?xml version="1.0" encoding="utf-8"?>
<!-- Generator: Adobe Illustrator 19.2.1, SVG Export Plug-In . SVG Version: 6.00 Build 0)  -->
<svg version="1.1" id="Layer_3" xmlns="http://www.w3.org/2000/svg" xmlns:xlink="http://www.w3.org/1999/xlink" x="0px" y="0px"
	 viewBox="0 0 59.7 59.3" style="enable-background:new 0 0 59.7 59.3;" xml:space="preserve">
<style type="text/css">
	.st0{opacity:0.1;enable-background:new    ;}
	.st1{fill:#FFD31A;}
</style>
<g>
	<path class="st0" d="M42.2,52.2c0.2-2.1,0.6-4.3,1.1-6.5l-1.8-0.4c-0.5,2.3-0.9,4.6-1.1,6.8h-2.1V54h2.1
		C41.3,53.9,42.1,53.2,42.2,52.2L42.2,52.2z"/>
	<path class="st0" d="M57,44.6h-9.6c0.2-0.6,0.3-1.3,0.5-1.9c1.4-0.2,2.5-1.3,2.5-2.8V35c2.1-6.1,3.7-11.7,3.7-18.5
		c0-3.5-8-4.8-12.2-5.2c-0.1-1.2-0.6-2.4-1.3-3.4L34.5,0l-6.1,7.9c-0.8,1-1.2,2.2-1.3,3.4c-4.2,0.5-12.2,1.8-12.2,5.2
		c0,6.9,1.7,12.6,3.8,18.7l1.8-0.6c-1.1-3.2-2-6.2-2.7-9.4c3.4,1.6,9.7,2.5,16.8,2.5c0.9,0,1.9,0,2.8-0.1v11.3
		c0,1.5,1.3,2.8,2.8,2.8s2.8-1.3,2.8-2.8v-6.5c0-0.5,0.4-0.9,0.9-0.9s0.9,0.4,0.9,0.9v7.5c0,1,0.5,1.9,1.3,2.4
		c-1.2,4-1.8,7.4-2.1,10.9c-0.1,1.5-1.3,2.6-2.8,2.6h-1.1H27.8c-1.5,0-2.7-1.1-2.8-2.6c0-0.5-0.1-1-0.1-1.5L23,51.9
		c0.1,0.5,0.1,0.9,0.1,1.4c0.2,2.4,2.2,4.3,4.7,4.3h12.3h1.1h12.9c1.5,0,2.8-1.3,2.8-2.8S55.6,52,54.1,52h-2.8
		c-0.5,0-0.9-0.4-0.9-0.9s0.4-0.9,0.9-0.9h5.6c1.5,0,2.8-1.3,2.8-2.8C59.8,45.8,58.5,44.6,57,44.6L57,44.6z M52.2,19.2
		c-0.1,1.2-0.2,2.4-0.4,3.6c-0.3,0.2-0.7,0.5-1.4,0.8V20C51.1,19.7,51.7,19.5,52.2,19.2L52.2,19.2z M50.4,25.6
		c0.3-0.1,0.6-0.2,0.9-0.4c-0.3,1.2-0.6,2.4-0.9,3.6V25.6z M41.9,13.2c7.3,0.8,10.4,2.6,10.4,3.4c0,1.2-5.9,3.6-16.8,3.7v-1.9l0,0
		C38.7,18.4,41.3,16.1,41.9,13.2z M34.5,16.5c-1,0-1.9-0.8-1.9-1.9c0-1,0.8-1.9,1.9-1.9s1.9,0.8,1.9,1.9S35.6,16.5,34.5,16.5z
		 M29.9,9l4.6-6l4.6,6c0.6,0.8,1,1.8,1,2.8c0,1.6-0.8,3-2,3.8c0.1-0.3,0.2-0.7,0.2-1.1c0-2.1-1.7-3.7-3.7-3.7
		c-2.1,0-3.7,1.7-3.7,3.7c0,0.4,0.1,0.7,0.2,1.1c-1.2-0.8-2-2.2-2-3.8C28.9,10.9,29.3,9.8,29.9,9L29.9,9z M27.2,13.2
		c0.6,3,3.2,5.2,6.4,5.2l0,0v1.9c-10.9-0.1-16.8-2.5-16.8-3.7C16.8,15.7,19.8,14,27.2,13.2z M34.5,25.9c-9,0-15.4-1.5-17.3-3.1
		c-0.2-1.2-0.3-2.4-0.4-3.6c3.4,2,10.7,3,17.7,3c0.9,0,1.9,0,2.8-0.1v3.7C36.4,25.8,35.5,25.9,34.5,25.9z M43.9,29.6
		c-1.5,0-2.8,1.3-2.8,2.8v6.5c0,0.5-0.4,0.9-0.9,0.9s-0.9-0.4-0.9-0.9v-17c3.4-0.2,6.7-0.7,9.4-1.4v19.3c0,0.5-0.4,0.9-0.9,0.9
		s-0.9-0.4-0.9-0.9v-7.5C46.7,30.9,45.4,29.6,43.9,29.6z M57,48.3h-5.6c-1.5,0-2.8,1.3-2.8,2.8s1.3,2.8,2.8,2.8h2.8
		c0.5,0,0.9,0.4,0.9,0.9s-0.4,0.9-0.9,0.9H45c0.5-0.7,0.9-1.5,0.9-2.5c0.2-2.3,0.5-4.5,1.1-6.9h10c0.5,0,0.9,0.4,0.9,0.9
		C57.9,47.9,57.5,48.3,57,48.3z"/>
	<path class="st0" d="M34.5,52.1h1.9V54h-1.9V52.1z"/>
	<path class="st0" d="M14,51.1c-3.1,0-5.6-2.5-5.6-5.6s2.5-5.6,5.6-5.6s5.6,2.5,5.6,5.6S17,51.1,14,51.1z M14,41.8
		c-2.1,0-3.7,1.7-3.7,3.7s1.7,3.7,3.7,3.7c2.1,0,3.7-1.7,3.7-3.7S16,41.8,14,41.8z"/>
	<path class="st1" d="M27.9,48.9v-7.1l-2.6-0.6c-0.1-0.3-0.2-0.6-0.4-0.9l1.4-2.3l-5-5L19,34.4c-0.3-0.1-0.6-0.3-0.9-0.4l-0.6-2.6
		h-7.1L9.8,34c-0.3,0.1-0.6,0.2-0.9,0.4L6.6,33l-5,5L3,40.3c-0.1,0.3-0.3,0.6-0.4,0.9L0,41.8v7.1l2.6,0.6c0.1,0.3,0.2,0.6,0.4,0.9
		l-1.4,2.3l5,5l2.3-1.4c0.3,0.1,0.6,0.3,0.9,0.4l0.6,2.6h7.1l0.6-2.6c0.3-0.1,0.6-0.2,0.9-0.4l2.3,1.4l5-5l-1.4-2.3
		c0.1-0.3,0.3-0.6,0.4-0.9L27.9,48.9z M13.8,52.9c-4.1,0-7.5-3.4-7.5-7.5s3.4-7.5,7.5-7.5s7.5,3.4,7.5,7.5S18,52.9,13.8,52.9z"/>
	<path class="st1" d="M38.3,21.1L38.3,21.1V39c0,1,0.8,1.9,1.9,1.9s1.9-0.8,1.9-1.9v-6.5c0-1,0.8-1.9,1.9-1.9s1.9,0.8,1.9,1.9V40
		c0,1,0.8,1.9,1.9,1.9s1.9-0.8,1.9-1.9V19.3l0,0C46.8,20.2,42.8,20.9,38.3,21.1L38.3,21.1z"/>
	<path class="st1" d="M57,45.5H46.3c-0.6,2.5-1.1,5-1.3,7.8c-0.2,1.9-1.8,3.5-3.7,3.5h12.9c1,0,1.9-0.8,1.9-1.9c0-1-0.8-1.9-1.9-1.9
		h-2.8c-1,0-1.9-0.8-1.9-1.9s0.8-1.9,1.9-1.9H57c1,0,1.9-0.8,1.9-1.9C58.9,46.4,58,45.5,57,45.5z"/>
</g>
</svg>
