<svg width="0" height="0" class="hidden">
  <symbol xmlns="http://www.w3.org/2000/svg" viewBox="0 0 59.9 57.6" id="Marketing">
    <path d="M26.3 36.9v-3.2c0-2.3 1.9-4.1 4.1-4.1 2.2 0 4.1 1.9 4.1 4.1v3.2c-1.3.6-2.7 1-4.1 1s-2.9-.4-4.1-1z"></path>
    <circle cx="30.4" cy="25.5" r="2.1"></circle>
    <path d="M21.1 28.6c0-5.1 4.2-9.3 9.3-9.3 5.1 0 9.3 4.2 9.3 9.3 0 2.8-1.2 5.2-3.1 6.9v-1.8c0-2.3-1.3-4.4-3.2-5.4.7-.7 1.1-1.7 1.1-2.8 0-2.3-1.9-4.1-4.1-4.1s-4.1 1.9-4.1 4.1c0 1.1.4 2.1 1.1 2.8-1.9 1.1-3.2 3.1-3.2 5.4v1.8c-1.9-1.7-3.1-4.2-3.1-6.9z"></path>
    <circle cx="14" cy="11" r=".9"></circle>
    <path d="M18.8 15.7c.4-.8.7-1.6.7-2.6 0-3-2.4-5.4-5.4-5.4s-5.4 2.4-5.4 5.4 2.4 5.4 5.4 5.4c1.1 0 2-.3 2.9-.8l3.6 3.4c.6-.7 1.2-1.4 1.9-2l-3.7-3.4zm-2.3.6l-.5.2c-.7.3-1.4.5-2.1.5-.7 0-1.4-.2-2.1-.5l-.5-.2v-1.8c0-1 .6-1.8 1.4-2.3-.3-.3-.5-.7-.5-1.2 0-.9.8-1.7 1.7-1.7s1.7.8 1.7 1.7c0 .5-.2.9-.5 1.2.8.4 1.4 1.3 1.4 2.3v1.8z"></path>
    <path d="M14 12.7c-1 0-1.7.8-1.7 1.7v1.3c.5.3 1.1.4 1.7.4.6 0 1.2-.2 1.7-.4v-1.3c0-.9-.8-1.7-1.7-1.7zM44.3 5c-1 0-1.7.8-1.7 1.7V8c.5.3 1.1.4 1.7.4s1.2-.2 1.7-.4V6.7c0-.9-.8-1.7-1.7-1.7z"></path>
    <circle cx="44.3" cy="3.3" r=".9"></circle>
    <path d="M44.2 0c-3 0-5.4 2.4-5.4 5.4 0 1.5.6 2.8 1.6 3.8l-4.8 8.1c.8.4 1.6.8 2.3 1.4l4.8-8.2c.5.1 1 .2 1.5.2 3 0 5.4-2.4 5.4-5.4 0-2.9-2.4-5.3-5.4-5.3zm2.6 8.6l-.5.2c-.7.3-1.4.5-2.1.5s-1.4-.2-2.1-.5l-.5-.2V6.8c0-1 .6-1.8 1.4-2.3-.3-.3-.5-.7-.5-1.2 0-.9.8-1.7 1.7-1.7.9 0 1.7.8 1.7 1.7 0 .5-.2.9-.5 1.2.8.4 1.4 1.3 1.4 2.3v1.8zm7.9 21.8c-1 0-1.7.8-1.7 1.7v1.3c.5.3 1.1.4 1.7.4s1.2-.2 1.7-.4v-1.3c0-.9-.8-1.7-1.7-1.7z"></path>
    <path d="M54.6 25.5c-2.3 0-4.3 1.5-5.1 3.5l-6.7-.7v.1c0 .9-.1 1.7-.3 2.6l6.7.7c.4 2.6 2.6 4.6 5.3 4.6 3 0 5.4-2.4 5.4-5.4.1-2.9-2.3-5.4-5.3-5.4zm2.7 8.5l-.5.2c-.7.3-1.4.5-2.1.5s-1.4-.2-2.1-.5l-.5-.2v-1.8c0-1 .6-1.8 1.4-2.3-.3-.3-.5-.7-.5-1.2 0-.9.8-1.7 1.7-1.7.9 0 1.7.8 1.7 1.7 0 .5-.2.9-.5 1.2.8.4 1.4 1.3 1.4 2.3V34z"></path>
    <circle cx="54.7" cy="28.7" r=".9"></circle>
    <circle cx="35.8" cy="50" r=".9"></circle>
    <path d="M35.8 51.7c-1 0-1.7.8-1.7 1.7v1.3c.5.3 1.1.4 1.7.4s1.2-.2 1.7-.4v-1.3c.1-.9-.7-1.7-1.7-1.7z"></path>
    <path d="M36 46.8l-1.5-6.6c-.9.3-1.7.5-2.7.6l1.5 6.6c-1.7.9-2.9 2.7-2.9 4.8 0 3 2.4 5.4 5.4 5.4s5.4-2.4 5.4-5.4c0-2.9-2.3-5.3-5.2-5.4zm2.4 8.5l-.5.2c-.7.3-1.4.5-2.1.5s-1.4-.2-2.1-.5l-.5-.2v-1.8c0-1 .6-1.8 1.4-2.3-.3-.3-.5-.7-.5-1.2 0-.9.8-1.7 1.7-1.7.9 0 1.7.8 1.7 1.7 0 .5-.2.9-.5 1.2.8.4 1.4 1.3 1.4 2.3v1.8zm-33.2-19c-1 0-1.7.8-1.7 1.7v1.3c.5.3 1.1.4 1.7.4.6 0 1.2-.2 1.7-.4V38c.1-.9-.7-1.7-1.7-1.7z"></path>
    <circle cx="5.2" cy="34.6" r=".9"></circle>
    <path d="M19.2 33.8c-.4-.8-.7-1.7-.9-2.6L9.9 34c-1-1.5-2.6-2.5-4.5-2.5-3 0-5.4 2.4-5.4 5.4s2.4 5.4 5.4 5.4 5.4-2.4 5.4-5.4v-.4l8.4-2.7zM7.8 39.9l-.5.2c-.7.3-1.4.5-2.1.5-.7 0-1.4-.2-2.1-.5l-.5-.2v-1.8c0-1 .6-1.8 1.4-2.3-.3-.3-.5-.7-.5-1.2 0-.9.8-1.7 1.7-1.7s1.7.8 1.7 1.7c0 .5-.2.9-.5 1.2.8.4 1.4 1.3 1.4 2.3v1.8z"></path>
  </symbol>

  <symbol xmlns="http://www.w3.org/2000/svg" viewBox="0 0 60.1 59.7" id="Marketing_02">
    <path d="M30.8 14.6l-2.3-.6 1.2-2.1-5.1-5.1L22.5 8l-.6-2.3h-7.3L14 8l-2.1-1.2-5.1 5.1L8 14l-2.3.6v7.3l2.3.6-1.2 2.1 5.1 5.1 2.1-1.2.6 2.3h7.3l.6-2.3 2.1 1.2 5.1-5.1-1.2-2.1 2.3-.6v-7.3zM18.3 24c-3.2 0-5.8-2.6-5.8-5.8s2.6-5.8 5.8-5.8 5.8 2.6 5.8 5.8c-.1 3.2-2.6 5.8-5.8 5.8z"
      fill="#ffd31a"></path>
    <g opacity=".1">
      <path d="M18.3 25a6.7 6.7 0 1 0-6.7-6.7c-.1 3.7 3 6.7 6.7 6.7zm0-11.6c2.7 0 4.8 2.2 4.8 4.8S20.9 23 18.3 23c-2.7 0-4.8-2.2-4.8-4.8s2.1-4.8 4.8-4.8z"></path>
      <path d="M37.5 15l-1.1 1.1c-.5-4.4-2.6-8.5-5.9-11.5-3.9-3.5-9-5.1-14.3-4.5C7.6 1.1.8 8 .1 16.7-.3 22 1.5 27.2 5.2 31c.5.5.9 1.1 1.3 1.7-1.5.1-2.6 1.4-2.6 2.9 0 .7.3 1.4.8 1.9-.5.5-.8 1.2-.8 1.9 0 1.6 1.3 2.9 2.9 2.9h1c.4 3.8 3.4 6.9 7.1 7.6l9.8 9.8H39l21.1-22.1L37.5 15zm0 2.7l19.8 19.8-18.9 19.8-6.7-6.7-6.7 6.7-7.3-7.3h2.5c4.4 0 8.1-3.4 8.6-7.7h1c1.6 0 2.9-1.3 2.9-2.9 0-.7-.3-1.4-.8-1.9.5-.5.8-1.2.8-1.9 0-1.5-1.2-2.7-2.6-2.9.3-.6.8-1.1 1.2-1.6 3.3-3.3 5.1-7.7 5.2-12.3l1-1.1zm-1.4 40h-8.8l4.4-4.4 4.4 4.4zM2 16.9C2.6 9.3 8.8 2.9 16.4 2c4.7-.5 9.3.9 12.8 4.1 3.5 3.1 5.4 7.5 5.4 12.2 0 4.3-1.7 8.4-4.7 11.5-.8.9-1.5 1.9-2 3H8.6c-.5-1.1-1.2-2.1-2.1-3-3.2-3.5-4.9-8.2-4.5-12.9zm4.7 17.7h23.1c.5 0 1 .4 1 1s-.4 1-1 1H6.7c-.5 0-1-.4-1-1s.5-1 1-1zm-.9 4.8c0-.5.4-1 1-1h23.1c.5 0 1 .4 1 1 0 .5-.4 1-1 1H6.8c-.6 0-1-.5-1-1zm3.9 2.9h17.2c-.5 3.3-3.3 5.8-6.7 5.8h-3.8c-3.4 0-6.2-2.6-6.7-5.8z"></path>
      <path d="M47.1 45.6l8.1-8.1-13.9-13.9-8.1 8.1 13.9 13.9zm5.4-8.1l-5.4 5.4L36 31.8l5.4-5.4 11.1 11.1zm-15.7 2.6l1.4-1.4 7.7 7.7-1.4 1.4-7.7-7.7zM33.9 43l1.4-1.3 7.5 7.7-1.4 1.3-7.5-7.7zM31 45.9l1.4-1.4 7.7 7.7-1.4 1.4-7.7-7.7z"></path>
      <path d="M45.3 35.1l1.4-1.4 1.4 1.4-1.4 1.4-1.4-1.4zm2.7 2.7l1.4-1.4 1.3 1.3-1.4 1.4-1.3-1.3zm-5.4-5.4L44 31l1.4 1.4-1.4 1.4-1.4-1.4z"></path>
    </g>
  </symbol>
</svg>